<?xml version="1.0" encoding="UTF-8" standalone="no"?>
<!-- Svg Vector Icons : http://www.onlinewebfonts.com/icon -->

<svg
   version="1.1"
   x="0px"
   y="0px"
   viewBox="0 0 236 236"
   enable-background="new 0 0 256 256"
   xml:space="preserve"
   id="svg190"
   sodipodi:docname="github.svg"
   width="236"
   height="236"
   inkscape:version="1.2.1 (9c6d41e, 2022-07-14)"
   xmlns:inkscape="http://www.inkscape.org/namespaces/inkscape"
   xmlns:sodipodi="http://sodipodi.sourceforge.net/DTD/sodipodi-0.dtd"
   xmlns="http://www.w3.org/2000/svg"
   xmlns:svg="http://www.w3.org/2000/svg"><defs
   id="defs194" /><sodipodi:namedview
   id="namedview192"
   pagecolor="#ffffff"
   bordercolor="#000000"
   borderopacity="0.25"
   inkscape:showpageshadow="2"
   inkscape:pageopacity="0.0"
   inkscape:pagecheckerboard="0"
   inkscape:deskcolor="#d1d1d1"
   showgrid="false"
   inkscape:zoom="0.921875"
   inkscape:cx="27.661017"
   inkscape:cy="118.23729"
   inkscape:window-width="1309"
   inkscape:window-height="430"
   inkscape:window-x="0"
   inkscape:window-y="44"
   inkscape:window-maximized="0"
   inkscape:current-layer="svg190" />
<metadata
   id="metadata182"> Svg Vector Icons : http://www.onlinewebfonts.com/icon </metadata>
<g
   id="g188"
   transform="translate(-10,-10)"
   style="fill:#000;fill-opacity:1"><g
     id="g186"
     style="fill:#000;fill-opacity:1"><path
       d="M 128,10 C 62.8,10 10,62.8 10,128 10,193.2 62.8,246 128,246 193.2,246 246,193.2 246,128 246,62.8 193.2,10 128,10 Z m 70.1,188.1 c -9.1,9.1 -19.7,16.3 -31.5,21.2 -3,1.3 -6,2.4 -9.1,3.3 V 205 c 0,-9.3 -3.2,-16.1 -9.6,-20.5 4,-0.4 7.7,-0.9 11,-1.6 3.3,-0.7 6.9,-1.7 10.6,-3 3.7,-1.3 7.1,-2.9 10,-4.7 3,-1.8 5.8,-4.1 8.5,-7 2.7,-2.9 5,-6.1 6.9,-9.8 1.9,-3.7 3.3,-8 4.4,-13.1 1.1,-5.1 1.6,-10.7 1.6,-16.9 0,-11.9 -3.9,-22.1 -11.6,-30.4 3.5,-9.2 3.2,-19.2 -1.2,-30.1 l -2.9,-0.3 c -2,-0.2 -5.6,0.6 -10.8,2.5 -5.2,1.9 -11,5.1 -17.5,9.4 -9.2,-2.5 -18.6,-3.8 -28.5,-3.8 -9.9,0 -19.4,1.3 -28.3,3.8 -4.1,-2.8 -7.9,-5.1 -11.6,-6.9 -3.7,-1.8 -6.6,-3 -8.8,-3.7 -2.2,-0.7 -4.2,-1.1 -6.1,-1.2 -1.9,-0.1 -3.1,-0.2 -3.6,-0.1 -0.5,0.1 -0.9,0.1 -1.2,0.2 -4.3,10.9 -4.7,20.9 -1.2,30.1 -7.8,8.4 -11.6,18.5 -11.6,30.4 0,6.1 0.5,11.8 1.6,16.9 1.1,5.1 2.5,9.5 4.4,13.1 1.9,3.7 4.1,6.9 6.9,9.8 2.7,2.9 5.6,5.2 8.5,7 3,1.8 6.3,3.4 10,4.7 3.7,1.3 7.2,2.3 10.6,3 3.3,0.7 7,1.2 11,1.6 -6.3,4.3 -9.4,11.1 -9.4,20.5 v 18 c -3.5,-1 -6.9,-2.3 -10.3,-3.7 -11.8,-5 -22.4,-12.1 -31.5,-21.2 -9.1,-9.1 -16.3,-19.7 -21.2,-31.5 -5.2,-12.2 -7.8,-25.2 -7.8,-38.6 0,-13.4 2.6,-26.4 7.8,-38.6 5,-11.8 12.1,-22.4 21.2,-31.5 9.1,-9.1 19.7,-16.3 31.5,-21.2 12.2,-5.2 25.2,-7.8 38.6,-7.8 13.4,0 26.4,2.6 38.6,7.8 11.8,5 22.4,12.1 31.5,21.2 9.1,9.1 16.3,19.7 21.2,31.5 5.2,12.2 7.8,25.2 7.8,38.6 0,13.4 -2.6,26.4 -7.8,38.6 -4.9,11.9 -12,22.5 -21.1,31.6 z"
       id="path184"
       style="fill:#000;fill-opacity:1" /></g></g>
</svg>
